<mxfile host="Electron" agent="Mozilla/5.0 (Windows NT 10.0; Win64; x64) AppleWebKit/537.36 (KHTML, like Gecko) draw.io/27.0.9 Chrome/134.0.6998.205 Electron/35.4.0 Safari/537.36" version="27.0.9">
  <diagram name="PÃ¡gina-1" id="TtrQ-OXxNwrGKGVQ0iMv">
    <mxGraphModel dx="692" dy="595" grid="1" gridSize="10" guides="1" tooltips="1" connect="1" arrows="1" fold="1" page="1" pageScale="1" pageWidth="827" pageHeight="1169" math="0" shadow="0">
      <root>
        <mxCell id="0" />
        <mxCell id="1" parent="0" />
        <mxCell id="FClvcfGj5N6eJqyRzWyG-1" value="&lt;font style=&quot;vertical-align: inherit;&quot;&gt;&lt;font style=&quot;vertical-align: inherit;&quot;&gt;Administrador&lt;/font&gt;&lt;/font&gt;" style="shape=umlLifeline;perimeter=lifelinePerimeter;whiteSpace=wrap;html=1;container=0;dropTarget=0;collapsible=0;recursiveResize=0;outlineConnect=0;portConstraint=eastwest;newEdgeStyle={&quot;edgeStyle&quot;:&quot;elbowEdgeStyle&quot;,&quot;elbow&quot;:&quot;vertical&quot;,&quot;curved&quot;:0,&quot;rounded&quot;:0};" vertex="1" parent="1">
          <mxGeometry x="160" y="140" width="120" height="560" as="geometry" />
        </mxCell>
        <mxCell id="FClvcfGj5N6eJqyRzWyG-2" value="Sistema de Gestion" style="shape=umlLifeline;perimeter=lifelinePerimeter;whiteSpace=wrap;html=1;container=0;dropTarget=0;collapsible=0;recursiveResize=0;outlineConnect=0;portConstraint=eastwest;newEdgeStyle={&quot;edgeStyle&quot;:&quot;elbowEdgeStyle&quot;,&quot;elbow&quot;:&quot;vertical&quot;,&quot;curved&quot;:0,&quot;rounded&quot;:0};" vertex="1" parent="1">
          <mxGeometry x="340" y="140" width="80" height="560" as="geometry" />
        </mxCell>
        <mxCell id="FClvcfGj5N6eJqyRzWyG-3" value="&lt;span style=&quot;color: rgba(0, 0, 0, 0); font-family: monospace; font-size: 0px; text-align: start;&quot;&gt;%3CmxGraphModel%3E%3Croot%3E%3CmxCell%20id%3D%220%22%2F%3E%3CmxCell%20id%3D%221%22%20parent%3D%220%22%2F%3E%3CmxCell%20id%3D%222%22%20value%3D%229%3AAgenda%20Disponible%22%20style%3D%22html%3D1%3BverticalAlign%3Dbottom%3BendArrow%3Dopen%3Bdashed%3D1%3BendSize%3D8%3BedgeStyle%3DelbowEdgeStyle%3Belbow%3Dhorizontal%3Bcurved%3D0%3Brounded%3D0%3BexitX%3D0.5%3BexitY%3D0.885%3BexitDx%3D0%3BexitDy%3D0%3BexitPerimeter%3D0%3BentryX%3D0.545%3BentryY%3D0.885%3BentryDx%3D0%3BentryDy%3D0%3BentryPerimeter%3D0%3B%22%20edge%3D%221%22%20parent%3D%221%22%3E%3CmxGeometry%20relative%3D%221%22%20as%3D%22geometry%22%3E%3CmxPoint%20x%3D%221030%22%20y%3D%22900%22%20as%3D%22targetPoint%22%2F%3E%3CArray%20as%3D%22points%22%3E%3CmxPoint%20x%3D%221135%22%20y%3D%22900%22%2F%3E%3C%2FArray%3E%3CmxPoint%20x%3D%221240%22%20y%3D%22900%22%20as%3D%22sourcePoint%22%2F%3E%3CmxPoint%20as%3D%22offset%22%2F%3E%3C%2FmxGeometry%3E%3C%2FmxCell%3E%3C%2Froot%3E%3C%2FmxGraphModel%3E&lt;/span&gt;" style="html=1;points=[];perimeter=orthogonalPerimeter;outlineConnect=0;targetShapes=umlLifeline;portConstraint=eastwest;newEdgeStyle={&quot;edgeStyle&quot;:&quot;elbowEdgeStyle&quot;,&quot;elbow&quot;:&quot;vertical&quot;,&quot;curved&quot;:0,&quot;rounded&quot;:0};" vertex="1" parent="FClvcfGj5N6eJqyRzWyG-2">
          <mxGeometry x="45" y="70" width="10" height="70" as="geometry" />
        </mxCell>
        <mxCell id="FClvcfGj5N6eJqyRzWyG-4" value="&lt;font style=&quot;vertical-align: inherit;&quot;&gt;&lt;font style=&quot;vertical-align: inherit;&quot;&gt;&lt;font style=&quot;vertical-align: inherit;&quot;&gt;&lt;font style=&quot;vertical-align: inherit;&quot;&gt;Base de Datos&lt;/font&gt;&lt;/font&gt;&lt;/font&gt;&lt;/font&gt;" style="shape=umlLifeline;perimeter=lifelinePerimeter;whiteSpace=wrap;html=1;container=0;dropTarget=0;collapsible=0;recursiveResize=0;outlineConnect=0;portConstraint=eastwest;newEdgeStyle={&quot;edgeStyle&quot;:&quot;elbowEdgeStyle&quot;,&quot;elbow&quot;:&quot;vertical&quot;,&quot;curved&quot;:0,&quot;rounded&quot;:0};" vertex="1" parent="1">
          <mxGeometry x="765" y="150" width="105" height="560" as="geometry" />
        </mxCell>
        <mxCell id="FClvcfGj5N6eJqyRzWyG-5" value="" style="html=1;points=[];perimeter=orthogonalPerimeter;outlineConnect=0;targetShapes=umlLifeline;portConstraint=eastwest;newEdgeStyle={&quot;edgeStyle&quot;:&quot;elbowEdgeStyle&quot;,&quot;elbow&quot;:&quot;vertical&quot;,&quot;curved&quot;:0,&quot;rounded&quot;:0};" vertex="1" parent="FClvcfGj5N6eJqyRzWyG-4">
          <mxGeometry x="45" y="100" width="10" height="370" as="geometry" />
        </mxCell>
        <mxCell id="FClvcfGj5N6eJqyRzWyG-6" value="" style="html=1;verticalAlign=bottom;endArrow=block;edgeStyle=elbowEdgeStyle;elbow=vertical;curved=0;rounded=0;exitX=0.916;exitY=0.952;exitDx=0;exitDy=0;exitPerimeter=0;" edge="1" parent="1" source="FClvcfGj5N6eJqyRzWyG-9" target="FClvcfGj5N6eJqyRzWyG-4">
          <mxGeometry relative="1" as="geometry">
            <mxPoint x="415" y="240" as="sourcePoint" />
            <Array as="points">
              <mxPoint x="505" y="260" />
            </Array>
            <mxPoint x="585" y="240" as="targetPoint" />
          </mxGeometry>
        </mxCell>
        <mxCell id="FClvcfGj5N6eJqyRzWyG-7" value="&lt;div style=&quot;text-align: center;&quot;&gt;&lt;span style=&quot;font-size: 11px; text-wrap: nowrap; background-color: rgb(255, 255, 255);&quot;&gt;&lt;font style=&quot;vertical-align: inherit;&quot;&gt;&lt;font style=&quot;vertical-align: inherit;&quot;&gt;2:Validacion de Usuario&lt;/font&gt;&lt;/font&gt;&lt;/span&gt;&lt;/div&gt;" style="text;whiteSpace=wrap;html=1;" vertex="1" parent="1">
          <mxGeometry x="430" y="230" width="110" height="40" as="geometry" />
        </mxCell>
        <mxCell id="FClvcfGj5N6eJqyRzWyG-8" value="" style="html=1;verticalAlign=bottom;endArrow=block;edgeStyle=elbowEdgeStyle;elbow=vertical;curved=0;rounded=0;" edge="1" parent="1" source="FClvcfGj5N6eJqyRzWyG-2" target="FClvcfGj5N6eJqyRzWyG-9">
          <mxGeometry relative="1" as="geometry">
            <mxPoint x="395" y="240" as="sourcePoint" />
            <Array as="points" />
            <mxPoint x="565" y="240" as="targetPoint" />
          </mxGeometry>
        </mxCell>
        <mxCell id="FClvcfGj5N6eJqyRzWyG-9" value="&lt;div style=&quot;text-align: center;&quot;&gt;&lt;span style=&quot;font-size: 11px; text-wrap: nowrap; background-color: rgb(255, 255, 255);&quot;&gt;&lt;font style=&quot;vertical-align: inherit;&quot;&gt;&lt;font style=&quot;vertical-align: inherit;&quot;&gt;&lt;font style=&quot;vertical-align: inherit;&quot;&gt;&lt;font style=&quot;vertical-align: inherit;&quot;&gt;1: Inisio de Sesion&lt;/font&gt;&lt;/font&gt;&lt;/font&gt;&lt;/font&gt;&lt;/span&gt;&lt;/div&gt;" style="text;whiteSpace=wrap;html=1;" vertex="1" parent="1">
          <mxGeometry x="215" y="220" width="200" height="40" as="geometry" />
        </mxCell>
        <mxCell id="FClvcfGj5N6eJqyRzWyG-10" value="" style="html=1;verticalAlign=bottom;endArrow=open;dashed=1;endSize=8;edgeStyle=elbowEdgeStyle;elbow=horizontal;curved=0;rounded=0;" edge="1" parent="1" source="FClvcfGj5N6eJqyRzWyG-5">
          <mxGeometry x="-0.0051" y="-20" relative="1" as="geometry">
            <mxPoint x="382.5" y="320" as="targetPoint" />
            <Array as="points">
              <mxPoint x="477.5" y="320" />
            </Array>
            <mxPoint x="577.5" y="320" as="sourcePoint" />
            <mxPoint as="offset" />
          </mxGeometry>
        </mxCell>
        <mxCell id="FClvcfGj5N6eJqyRzWyG-11" value="" style="endArrow=classic;html=1;rounded=0;entryX=0.878;entryY=0.931;entryDx=0;entryDy=0;entryPerimeter=0;" edge="1" parent="1" source="FClvcfGj5N6eJqyRzWyG-1" target="FClvcfGj5N6eJqyRzWyG-9">
          <mxGeometry width="50" height="50" relative="1" as="geometry">
            <mxPoint x="225" y="300" as="sourcePoint" />
            <mxPoint x="275" y="250" as="targetPoint" />
          </mxGeometry>
        </mxCell>
        <mxCell id="FClvcfGj5N6eJqyRzWyG-12" value="&lt;div style=&quot;text-align: center;&quot;&gt;&lt;span style=&quot;font-size: 11px; text-wrap: nowrap; background-color: rgb(255, 255, 255);&quot;&gt;4:Crear Planes&lt;/span&gt;&lt;/div&gt;" style="text;whiteSpace=wrap;html=1;" vertex="1" parent="1">
          <mxGeometry x="220" y="330" width="130" height="40" as="geometry" />
        </mxCell>
        <mxCell id="FClvcfGj5N6eJqyRzWyG-13" value="" style="endArrow=classic;html=1;rounded=0;" edge="1" parent="1" target="FClvcfGj5N6eJqyRzWyG-23">
          <mxGeometry width="50" height="50" relative="1" as="geometry">
            <mxPoint x="377.25" y="400" as="sourcePoint" />
            <mxPoint x="592.75" y="400" as="targetPoint" />
          </mxGeometry>
        </mxCell>
        <mxCell id="FClvcfGj5N6eJqyRzWyG-14" value="&lt;div style=&quot;text-align: center;&quot;&gt;&lt;span style=&quot;font-size: 11px; text-wrap: nowrap; background-color: rgb(255, 255, 255);&quot;&gt;9:Confirmacion de Guardado&lt;/span&gt;&lt;/div&gt;" style="text;whiteSpace=wrap;html=1;" vertex="1" parent="1">
          <mxGeometry x="225" y="670" width="130" height="40" as="geometry" />
        </mxCell>
        <mxCell id="FClvcfGj5N6eJqyRzWyG-15" value="" style="endArrow=classic;html=1;rounded=0;" edge="1" parent="1">
          <mxGeometry width="50" height="50" relative="1" as="geometry">
            <mxPoint x="220" y="369" as="sourcePoint" />
            <mxPoint x="381" y="369" as="targetPoint" />
          </mxGeometry>
        </mxCell>
        <mxCell id="FClvcfGj5N6eJqyRzWyG-16" value="&lt;div style=&quot;text-align: center;&quot;&gt;&lt;span style=&quot;font-size: 11px; text-wrap: nowrap; background-color: rgb(255, 255, 255);&quot;&gt;&lt;font style=&quot;vertical-align: inherit;&quot;&gt;&lt;font style=&quot;vertical-align: inherit;&quot;&gt;5: Validacion de Datos&lt;/font&gt;&lt;/font&gt;&lt;/span&gt;&lt;/div&gt;" style="text;whiteSpace=wrap;html=1;" vertex="1" parent="1">
          <mxGeometry x="400" y="400" width="110" height="40" as="geometry" />
        </mxCell>
        <mxCell id="FClvcfGj5N6eJqyRzWyG-17" value="&lt;div style=&quot;text-align: center;&quot;&gt;&lt;span style=&quot;font-size: 11px; text-wrap: nowrap; background-color: rgb(255, 255, 255);&quot;&gt;&lt;font style=&quot;vertical-align: inherit;&quot;&gt;&lt;font style=&quot;vertical-align: inherit;&quot;&gt;3:Validacion de Datos&lt;/font&gt;&lt;/font&gt;&lt;/span&gt;&lt;/div&gt;" style="text;whiteSpace=wrap;html=1;" vertex="1" parent="1">
          <mxGeometry x="440" y="290" width="110" height="40" as="geometry" />
        </mxCell>
        <mxCell id="FClvcfGj5N6eJqyRzWyG-18" value="&lt;div style=&quot;text-align: center;&quot;&gt;&lt;span style=&quot;font-size: 11px; text-wrap: nowrap; background-color: rgb(255, 255, 255);&quot;&gt;6: Datos Validos&lt;/span&gt;&lt;/div&gt;" style="text;whiteSpace=wrap;html=1;" vertex="1" parent="1">
          <mxGeometry x="580" y="420" width="110" height="40" as="geometry" />
        </mxCell>
        <mxCell id="FClvcfGj5N6eJqyRzWyG-19" value="" style="endArrow=classic;html=1;rounded=0;" edge="1" parent="1" target="FClvcfGj5N6eJqyRzWyG-4">
          <mxGeometry width="50" height="50" relative="1" as="geometry">
            <mxPoint x="384.5" y="500" as="sourcePoint" />
            <mxPoint x="545.5" y="500" as="targetPoint" />
          </mxGeometry>
        </mxCell>
        <mxCell id="FClvcfGj5N6eJqyRzWyG-20" value="&lt;div style=&quot;text-align: center;&quot;&gt;&lt;span style=&quot;font-size: 11px; text-wrap: nowrap; background-color: rgb(255, 255, 255);&quot;&gt;7: Guardar Reservas&lt;/span&gt;&lt;/div&gt;" style="text;whiteSpace=wrap;html=1;" vertex="1" parent="1">
          <mxGeometry x="420" y="500" width="110" height="40" as="geometry" />
        </mxCell>
        <mxCell id="FClvcfGj5N6eJqyRzWyG-21" value="&lt;div style=&quot;text-align: center;&quot;&gt;&lt;span style=&quot;font-size: 11px; text-wrap: nowrap; background-color: rgb(255, 255, 255);&quot;&gt;8: Guardar Modulo Reservas&lt;/span&gt;&lt;/div&gt;" style="text;whiteSpace=wrap;html=1;" vertex="1" parent="1">
          <mxGeometry x="640" y="560" width="110" height="40" as="geometry" />
        </mxCell>
        <mxCell id="FClvcfGj5N6eJqyRzWyG-22" value="Reservas" style="shape=umlLifeline;perimeter=lifelinePerimeter;whiteSpace=wrap;html=1;container=0;dropTarget=0;collapsible=0;recursiveResize=0;outlineConnect=0;portConstraint=eastwest;newEdgeStyle={&quot;edgeStyle&quot;:&quot;elbowEdgeStyle&quot;,&quot;elbow&quot;:&quot;vertical&quot;,&quot;curved&quot;:0,&quot;rounded&quot;:0};" vertex="1" parent="1">
          <mxGeometry x="510" y="320" width="80" height="400" as="geometry" />
        </mxCell>
        <mxCell id="FClvcfGj5N6eJqyRzWyG-23" value="&lt;span style=&quot;color: rgba(0, 0, 0, 0); font-family: monospace; font-size: 0px; text-align: start;&quot;&gt;%3CmxGraphModel%3E%3Croot%3E%3CmxCell%20id%3D%220%22%2F%3E%3CmxCell%20id%3D%221%22%20parent%3D%220%22%2F%3E%3CmxCell%20id%3D%222%22%20value%3D%229%3AAgenda%20Disponible%22%20style%3D%22html%3D1%3BverticalAlign%3Dbottom%3BendArrow%3Dopen%3Bdashed%3D1%3BendSize%3D8%3BedgeStyle%3DelbowEdgeStyle%3Belbow%3Dhorizontal%3Bcurved%3D0%3Brounded%3D0%3BexitX%3D0.5%3BexitY%3D0.885%3BexitDx%3D0%3BexitDy%3D0%3BexitPerimeter%3D0%3BentryX%3D0.545%3BentryY%3D0.885%3BentryDx%3D0%3BentryDy%3D0%3BentryPerimeter%3D0%3B%22%20edge%3D%221%22%20parent%3D%221%22%3E%3CmxGeometry%20relative%3D%221%22%20as%3D%22geometry%22%3E%3CmxPoint%20x%3D%221030%22%20y%3D%22900%22%20as%3D%22targetPoint%22%2F%3E%3CArray%20as%3D%22points%22%3E%3CmxPoint%20x%3D%221135%22%20y%3D%22900%22%2F%3E%3C%2FArray%3E%3CmxPoint%20x%3D%221240%22%20y%3D%22900%22%20as%3D%22sourcePoint%22%2F%3E%3CmxPoint%20as%3D%22offset%22%2F%3E%3C%2FmxGeometry%3E%3C%2FmxCell%3E%3C%2Froot%3E%3C%2FmxGraphModel%3E&lt;/span&gt;" style="html=1;points=[];perimeter=orthogonalPerimeter;outlineConnect=0;targetShapes=umlLifeline;portConstraint=eastwest;newEdgeStyle={&quot;edgeStyle&quot;:&quot;elbowEdgeStyle&quot;,&quot;elbow&quot;:&quot;vertical&quot;,&quot;curved&quot;:0,&quot;rounded&quot;:0};" vertex="1" parent="FClvcfGj5N6eJqyRzWyG-22">
          <mxGeometry x="35" y="40" width="10" height="310" as="geometry" />
        </mxCell>
        <mxCell id="FClvcfGj5N6eJqyRzWyG-24" value="" style="endArrow=classic;html=1;rounded=0;" edge="1" parent="1" target="FClvcfGj5N6eJqyRzWyG-4">
          <mxGeometry width="50" height="50" relative="1" as="geometry">
            <mxPoint x="550" y="460" as="sourcePoint" />
            <mxPoint x="691" y="460" as="targetPoint" />
          </mxGeometry>
        </mxCell>
        <mxCell id="FClvcfGj5N6eJqyRzWyG-25" value="" style="html=1;verticalAlign=bottom;endArrow=open;dashed=1;endSize=8;edgeStyle=elbowEdgeStyle;elbow=horizontal;curved=0;rounded=0;" edge="1" parent="1" source="FClvcfGj5N6eJqyRzWyG-5">
          <mxGeometry x="-0.0051" y="-20" relative="1" as="geometry">
            <mxPoint x="550" y="599" as="targetPoint" />
            <Array as="points">
              <mxPoint x="815" y="590" />
            </Array>
            <mxPoint x="846.25" y="599" as="sourcePoint" />
            <mxPoint as="offset" />
          </mxGeometry>
        </mxCell>
        <mxCell id="FClvcfGj5N6eJqyRzWyG-26" value="" style="html=1;verticalAlign=bottom;endArrow=open;dashed=1;endSize=8;edgeStyle=elbowEdgeStyle;elbow=horizontal;curved=0;rounded=0;" edge="1" parent="1">
          <mxGeometry x="-0.0051" y="-20" relative="1" as="geometry">
            <mxPoint x="376.25" y="640" as="targetPoint" />
            <Array as="points" />
            <mxPoint x="550" y="640" as="sourcePoint" />
            <mxPoint as="offset" />
          </mxGeometry>
        </mxCell>
        <mxCell id="FClvcfGj5N6eJqyRzWyG-27" value="&lt;div style=&quot;text-align: center;&quot;&gt;&lt;span style=&quot;font-size: 11px; text-wrap: nowrap; background-color: rgb(255, 255, 255);&quot;&gt;9: Reservas Guardado&lt;/span&gt;&lt;/div&gt;" style="text;whiteSpace=wrap;html=1;" vertex="1" parent="1">
          <mxGeometry x="415" y="650" width="110" height="40" as="geometry" />
        </mxCell>
        <mxCell id="FClvcfGj5N6eJqyRzWyG-28" value="" style="html=1;verticalAlign=bottom;endArrow=open;dashed=1;endSize=8;edgeStyle=elbowEdgeStyle;elbow=horizontal;curved=0;rounded=0;" edge="1" parent="1">
          <mxGeometry x="-0.0051" y="-20" relative="1" as="geometry">
            <mxPoint x="220" y="650" as="targetPoint" />
            <Array as="points" />
            <mxPoint x="380" y="650" as="sourcePoint" />
            <mxPoint as="offset" />
          </mxGeometry>
        </mxCell>
      </root>
    </mxGraphModel>
  </diagram>
</mxfile>
